<mxfile host="app.diagrams.net" modified="2023-06-02T07:04:42.173Z" agent="Mozilla/5.0 (Macintosh; Intel Mac OS X 10_15_7) AppleWebKit/537.36 (KHTML, like Gecko) Chrome/114.0.0.0 Safari/537.36" version="21.1.4" etag="1WLl7KjEwkuiXxXU_khd" type="github">
  <diagram name="第 1 页" id="hFDiLgZE5By2Ki76zf9k">
    <mxGraphModel>
      <root>
        <mxCell id="0" />
        <mxCell id="1" parent="0" />
      </root>
    </mxGraphModel>
  </diagram>
</mxfile>
